<svg id="Layer_1" data-name="Layer 1" xmlns="http://www.w3.org/2000/svg" viewBox="0 0 257.66 95.46"><defs><style>.cls-1{fill:#d17700}.cls-2{fill:#fffde4}</style></defs><title>Caffè Nero</title><path class="cls-1" d="M79.24 9.33a3.88 3.88 0 0 0-3.88 3.89V26a3.88 3.88 0 0 0 3.88 3.88H94.4v-6.27H83.21v-8H94.4V9.33H79.24zm24.26 0a3.88 3.88 0 0 0-3.88 3.88v16.68h8v-4.11l6.1-1v5.07h8V13.21a3.88 3.88 0 0 0-3.89-3.88H103.5zm4.14 6.35h6.08v3.45l-6 .94z" transform="translate(-3.09 -1.14)"/><path class="cls-1" d="M123.97 8.19v20.56h7.82v-7.32l5.44-.11 1.17-5.87h-6.61v-.97h11.09V8.19h-18.91zm22.3 0v20.56h7.81v-7.32l5.44-.11 1.17-5.87h-6.61v-.97h11.09V8.19h-18.9zm22.64 0V28.8h20.48v-6.28h-12.66v-1.09l5.44-.11 1.17-5.87h-6.61v-.97h12.66V8.19h-20.48z"/><path class="cls-1" d="M179.07 1.14L178.88 3a6 6 0 0 0 .53 2.87 3.88 3.88 0 0 0 3.83 2.17h9.54l-.83-3.17zM138.45 40.4v53.86h18.92V79h9.35l10.18 15.3h19.5l1-1.93-9.8-14.11a7.65 7.65 0 0 0 5-7V49.78a9.39 9.39 0 0 0-9.38-9.39h-44.8zm18.87 14h16.28v10.71h-16.28V54.44z" transform="translate(-3.09 -1.14)"/><path class="cls-1" d="M0 39.28V93.1h16.84V70.32l42.87 25.13 1.94-1.1V39.22H45.08v24.09L1.93 38.16 0 39.28zm72.07-.06V93.1h53.5V78.4H90.98v-6.42l15.07-.33 2.71-13.6H90.98v-4.07h34.59V39.22h-53.5z"/><path class="cls-1" d="M212.65 40.4a9.38 9.38 0 0 0-9.38 9.39v35a9.38 9.38 0 0 0 9.38 9.38h38.72a9.38 9.38 0 0 0 9.38-9.17V49.58a9.38 9.38 0 0 0-9.38-9.18h-38.72zm8.59 14.69h21.86v24.4h-21.86v-24.4z" transform="translate(-3.09 -1.14)"/><path class="cls-2" d="M140.39 42.33v50h15.05V77h12.31l10.18 15.31H195L184.36 77c3.06 0 6.34-2.35 6.34-5.72v-21.5a7.45 7.45 0 0 0-7.45-7.45h-42.86zm15 10.17h20.16v14.55h-20.17V52.5z" transform="translate(-3.09 -1.14)"/><path class="cls-2" d="M1.93 91.16h12.98V66.94l44.81 26.27V41.16H47.01v25.51L1.93 40.4v50.76zm72.07-50v50h49.63V80.33H89.04V70.08l15.41-.33 1.95-9.76H89.04v-7.95h34.59V41.16H74z"/><path class="cls-2" d="M212.65 42.33a7.45 7.45 0 0 0-7.45 7.45v35a7.44 7.44 0 0 0 7.45 7.44h38.72a7.44 7.44 0 0 0 7.45-7.44v-35a7.45 7.45 0 0 0-7.45-7.45h-38.72zm6.66 10.82H245v28.27h-25.69V53.15zM79.24 10.49a2.73 2.73 0 0 0-2.73 2.73V26a2.73 2.73 0 0 0 2.73 2.73h14v-4H82.06V14.45h11.18v-4h-14zm24.26 0a2.72 2.72 0 0 0-2.73 2.73v15.51h5.74v-3.95l8.41-1.32v5.27h5.68V13.21a2.72 2.72 0 0 0-2.73-2.73H103.5zm3 4h8.41v5.59l-8.41 1.32v-6.9z" transform="translate(-3.09 -1.14)"/><path class="cls-2" d="M125.13 9.35v18.24h5.51V20.3l5.64-.12.71-3.57h-6.35v-3.28h11.08V9.35h-16.59zm22.29 0v18.24h5.51V20.3l5.64-.12.71-3.57h-6.35v-3.28h11.09V9.35h-16.6z"/><path class="cls-2" d="M180.08 3.08c-.06.93.06 3.84 3.22 3.84h8l-.3-1.07-10.89-3.14z" transform="translate(-3.09 -1.14)"/><path class="cls-2" d="M170.07 9.34v18.3h18.16v-3.96h-12.66V20.3l5.65-.12.71-3.57h-6.36v-3.28h12.66V9.34h-18.16z"/></svg>