<?xml version="1.0" encoding="utf-8"?>
<!-- Generator: Adobe Illustrator 19.0.0, SVG Export Plug-In . SVG Version: 6.00 Build 0)  -->
<svg version="1.1" id="layer" xmlns="http://www.w3.org/2000/svg" xmlns:xlink="http://www.w3.org/1999/xlink" x="0px" y="0px"
	 viewBox="-153 -46 652 652" style="enable-background:new -153 -46 652 652;" xml:space="preserve">
<style type="text/css">
	.st0{fill:#90172C;}
</style>
<path class="st0" d="M448,256l5.4,15.9h14.8l-11.8,8.3l4.6,14.5l-13-8.4l-12.9,8.3l4.6-14.4l-12.1-8.3h14.9L448,256z M-116.9,272
	h-14.9l12.1,8.3l-4.6,14.4l12.9-8.3l13,8.4l-4.6-14.5l11.8-8.3H-106l-5.4-15.9L-116.9,272z M390.1,297.9c3.5,6.9,8.4,10.5,15.6,12.1
	v8.4c-9-0.8-15.6-4.9-20.2-13.3v13.3h-8.4v-86.8c17.2,4.4,26.6,23.2,26.6,35.4C403.8,279.3,400.9,286,390.1,297.9 M385.6,291.5
	c6.8-8.2,9.7-15.5,9.7-24.2c0-9.2-3.9-16.2-9.7-21.5V291.5 M343.6,231.8h22.5v8.4h-14v51.3h14v8.4h-14v10h14v8.4h-22.5V231.8z
	 M319.2,300v-8.5h13.2l0,9.5c0.4,9.1-5.5,17.4-14.7,17.4c-8.5,0.1-14.6-6.6-14.6-15.6v-55.5c0-9.1,6.1-15.6,14.6-15.6
	c8.4,0,14.6,6.5,14.6,15.6v5.2h-8.5v-4.8c0-4.9-2.1-7.5-6.1-7.5c-4,0-6.1,2.6-6.1,7.5v54.7c0,4.9,2.1,7.5,6.1,7.5
	c4,0,6.3-3.2,6.3-8.1l-0.1-1.9H319.2z M283.7,268.3L272,255.1v63.4h-8.5v-85.9l20.2,22.8v-23.6h8.5v86.7h-8.5V268.3z M241.3,304.2
	h-11.8l-2.5,14.2h-8.5l16.9-86.3l16.9,86.3h-8.5L241.3,304.2z M235.3,270.3l-4.4,25.5h8.9L235.3,270.3z M198.9,256.6l-8.9,12.1
	l-9-12.1v61.9h-8.4v-86.3l17.4,22.4l17.3-22.4v86.3h-8.4V256.6z M125.3,304.2h-11.8l-2.5,14.2h-8.5l16.9-86.3l16.9,86.3h-8.5
	L125.3,304.2z M119.4,270.3l-4.4,25.5h8.9L119.4,270.3z M62.7,318.4h-8.4v-78.2H44.1v-8.5h28.7v8.5H62.7V318.4z M10.4,231.8h22.5
	v8.4h-14v51.3h14v8.4h-14v10h14v8.4H10.4V231.8z M-0.8,318.4c-9-0.8-15.6-4.9-20.1-13.3v13.3h-8.4v-86.7
	c17.1,4.4,26.6,23.2,26.6,35.4c0,12.2-2.9,18.8-13.6,30.8c3.5,6.9,8.4,10.5,15.6,12.1V318.4 M-20.9,291.5c6.8-8.2,9.7-15.5,9.7-24.2
	c0-9.2-3.9-16.2-9.7-21.5V291.5 M-40.7,267.1c1.6,20.1-18.2,36.2-18.2,36.2v15.2h-8.4v-86.7C-49.6,236.1-41.6,255.3-40.7,267.1
	 M-49.2,267.4c0-9.2-3.9-16.1-9.7-21.4v45.6C-52.1,283.4-49.2,276.1-49.2,267.4"/>
</svg>
